<svg width="32" height="33" version="1.1" xmlns="http://www.w3.org/2000/svg" desc="Created with imagetracer.js version 1.2.6" ><path fill="rgb(0,0,0)" stroke="rgb(0,0,0)" stroke-width="1" opacity="0.5882352941176471" d="M 7.5 6 L 6.5 8 L 7.5 6 Z " /><path fill="rgb(0,0,0)" stroke="rgb(0,0,0)" stroke-width="1" opacity="0" d="M 0 0 L 9 0.5 L 3 4.5 L 0.5 9 L 0 0 Z " /><path fill="rgb(0,0,0)" stroke="rgb(0,0,0)" stroke-width="1" opacity="0" d="M 19.5 0 L 32 0 L 32 27.5 L 26 22.5 Q 29.5 18.5 28 9.5 L 23.5 3 Q 18.8 2.2 19.5 0 Z " /><path fill="rgb(0,0,0)" stroke="rgb(0,0,0)" stroke-width="1" opacity="0" d="M 13.5 4 Q 20.8 4.3 23 9.5 L 24 15.5 L 18.5 23 L 12.5 24 L 5 18.5 L 4 13.5 L 5 9.5 L 8.5 6 L 13.5 4 Z " /><path fill="rgb(0,0,0)" stroke="rgb(0,0,0)" stroke-width="1" opacity="0" d="M 0.5 19 L 5.5 26 Q 9.5 29.5 18.5 28 L 22.5 26 L 28.5 32 L 32 32.5 L 0 33 L 0.5 19 Z " /><path fill="rgb(0,0,0)" stroke="rgb(0,0,0)" stroke-width="1" opacity="1" d="M 10.5 1 L 19.5 1 L 20 3 L 21.5 3 L 25 8 L 27 8.5 L 27 10.5 L 28 15.5 L 26 18.5 L 26.5 20 L 25 20.5 L 25 22.5 L 31 31 L 22.5 25 L 18.5 27 L 11.5 28 Q 9.8 24.9 8 26.5 L 7.5 25 L 6 25.5 L 3.5 22 L 2 21.5 L 2.5 20 L 1 19.5 L 1 17.5 L 0 13.5 L 1 8 L 3 7.5 L 2.5 6 L 10.5 1 Z M 12 3 L 8 5 Q 2 8 4 20 L 9 24 L 10 23 L 11 24 L 20 24 L 24 20 L 23 19 L 24 18 L 24 9 L 18 4 L 16 4 L 12 3 Z " /><path fill="rgb(0,0,0)" stroke="rgb(0,0,0)" stroke-width="1" opacity="0.984313725490196" d="M 20.5 2 L 24 4.5 L 21.5 3 L 20.5 2 Z " /><path fill="rgb(0,0,0)" stroke="rgb(0,0,0)" stroke-width="1" opacity="0.984313725490196" d="M 4.5 4 L 3.5 6 L 4.5 4 Z " /><path fill="rgb(0,0,0)" stroke="rgb(0,0,0)" stroke-width="1" opacity="0.984313725490196" d="M 7.5 5 L 5.5 8 L 7.5 5 Z " /><path fill="rgb(0,0,0)" stroke="rgb(0,0,0)" stroke-width="1" opacity="0.984313725490196" d="M 21.5 21 L 20.5 23 L 21.5 21 Z " /><path fill="rgb(0,0,0)" stroke="rgb(0,0,0)" stroke-width="1" opacity="0.984313725490196" d="M 25.5 23 L 31.5 30 L 25.5 23 Z " /><path fill="rgb(0,0,0)" stroke="rgb(0,0,0)" stroke-width="1" opacity="0.2823529411764706" d="M 4.5 3 L 3.5 5 L 4.5 3 Z " /><path fill="rgb(0,0,0)" stroke="rgb(0,0,0)" stroke-width="1" opacity="0.2823529411764706" d="M 23.5 3 L 24.5 5 L 23.5 3 Z " /><path fill="rgb(0,0,0)" stroke="rgb(0,0,0)" stroke-width="1" opacity="0.2823529411764706" d="M 6.5 20 L 7.5 22 L 6.5 20 Z " /><path fill="rgb(0,0,0)" stroke="rgb(0,0,0)" stroke-width="1" opacity="0.2823529411764706" d="M 25.5 22 L 31.5 29 L 25.5 22 Z " /><path fill="rgb(0,0,0)" stroke="rgb(0,0,0)" stroke-width="1" opacity="0.2823529411764706" d="M 3.5 23 L 4.5 25 L 3.5 23 Z " /><path fill="rgb(0,0,0)" stroke="rgb(0,0,0)" stroke-width="1" opacity="0.2823529411764706" d="M 22.5 25 L 28.5 32 L 22.5 25 Z " /><path fill="rgb(0,0,0)" stroke="rgb(0,0,0)" stroke-width="1" opacity="0.996078431372549" d="M 8.5 1 L 10 1.5 L 7.5 3 L 8.5 1 Z " /><path fill="rgb(0,0,0)" stroke="rgb(0,0,0)" stroke-width="1" opacity="0.996078431372549" d="M 4.5 18 L 6 20.5 L 4 19.5 L 4.5 18 Z " /><path fill="rgb(0,0,0)" stroke="rgb(0,0,0)" stroke-width="1" opacity="0.996078431372549" d="M 23.5 19 L 22.5 21 L 23.5 19 Z " /><path fill="rgb(0,0,0)" stroke="rgb(0,0,0)" stroke-width="1" opacity="0.996078431372549" d="M 7.5 22 L 8.5 24 L 7.5 22 Z " /><path fill="rgb(0,0,0)" stroke="rgb(0,0,0)" stroke-width="1" opacity="0.996078431372549" d="M 20.5 25 L 19.5 27 L 20.5 25 Z " /><path fill="rgb(0,0,0)" stroke="rgb(0,0,0)" stroke-width="1" opacity="0.996078431372549" d="M 23.5 25 L 30.5 31 L 32 30.5 L 29.5 32 L 23.5 25 Z " /></svg>